<?xml version="1.0" encoding="utf-8"?>
<!-- Generator: Adobe Illustrator 21.1.0, SVG Export Plug-In . SVG Version: 6.00 Build 0)  -->
<svg version="1.1" id="Lag_1" xmlns="http://www.w3.org/2000/svg" xmlns:xlink="http://www.w3.org/1999/xlink" x="0px" y="0px"
	 viewBox="0 0 492.7 210.8" style="enable-background:new 0 0 492.7 210.8;" xml:space="preserve">
<style type="text/css">
	.st0{stroke:#FFFFFF;stroke-width:3.6857;}
	.st1{fill:#EE3524;stroke:#FFFFFF;stroke-width:4.536;}
	.st2{fill:#6CB33F;stroke:#FFFFFF;stroke-width:4.536;}
	.st3{fill:#FFFFFF;stroke:#FFFFFF;stroke-width:2.1829;}
	.st4{fill:#FFFFFF;}
</style>
<path class="st0" d="M186.7,69.5c-1.4,0-2.5-0.7-2.5-1.7l0,0c0-0.9,1.1-1.7,2.5-1.7H314c1.4,0,2.5,0.7,2.5,1.7l0,0
	c0,0.9-1.1,1.7-2.5,1.7H186.7z"/>
<path class="st0" d="M247.6,5.2c0-1.4,0.7-2.5,1.7-2.5l0,0c0.9,0,1.7,1.1,1.7,2.5v127.3c0,1.4-0.7,2.5-1.7,2.5l0,0
	c-0.9,0-1.7-1.1-1.7-2.5V5.2z"/>
<path class="st1" d="M205.3,68.8c0-24.7,20-44.7,44.7-44.7c24.7,0,44.7,20,44.7,44.7"/>
<path class="st2" d="M205.3,68.2c0,24.7,20,44.7,44.7,44.7c24.7,0,44.7-20,44.7-44.7"/>
<circle class="st3" cx="249.4" cy="67.7" r="10.1"/>
<g>
	<path class="st4" d="M2.5,173.8v-14.3H6c1.9,0,3.3,0.4,4.2,1.1c0.9,0.7,1.3,1.8,1.3,3.3c0,1.4-0.5,2.5-1.4,3.3
		c-0.9,0.8-2.2,1.2-3.7,1.2H5.5v5.5L2.5,173.8L2.5,173.8z M5.5,165.9H6c0.8,0,1.4-0.2,1.8-0.5s0.6-0.9,0.6-1.7
		c0-0.7-0.2-1.2-0.6-1.5s-1-0.5-1.8-0.5H5.5V165.9z"/>
	<path class="st4" d="M20.6,173.8v-14.3H29v2.6h-5.3v2.9H29v2.6h-5.3v3.6H29v2.6L20.6,173.8L20.6,173.8z"/>
	<path class="st4" d="M44.3,162v11.7h-3.1V162h-3.5v-2.6h10.1v2.6H44.3z"/>
	<path class="st4" d="M67.2,173.8h-3.5l-3.8-6.7v6.7h-3.1v-14.3h4.4c1.7,0,3,0.3,3.9,1s1.3,1.7,1.3,3c0,1-0.3,1.8-0.9,2.5
		s-1.4,1.1-2.3,1.2L67.2,173.8z M59.9,165.5h0.5c1.2,0,2-0.1,2.4-0.4s0.6-0.7,0.6-1.4c0-0.7-0.2-1.2-0.6-1.5s-1.2-0.4-2.4-0.4h-0.5
		C59.9,161.8,59.9,165.5,59.9,165.5z"/>
	<path class="st4" d="M90.6,166.6c0,1-0.2,2-0.6,2.9c-0.4,0.9-0.9,1.7-1.6,2.4c-0.7,0.7-1.6,1.3-2.5,1.6c-0.9,0.4-1.9,0.6-2.9,0.6
		c-0.9,0-1.7-0.1-2.6-0.4s-1.6-0.7-2.3-1.3c-0.9-0.7-1.6-1.6-2.1-2.6c-0.5-1-0.7-2.1-0.7-3.2c0-1,0.2-2,0.6-2.9
		c0.4-0.9,0.9-1.7,1.7-2.4c0.7-0.7,1.5-1.2,2.5-1.6c0.9-0.4,1.9-0.6,2.9-0.6c1,0,2,0.2,2.9,0.6s1.8,0.9,2.5,1.6
		c0.7,0.7,1.3,1.5,1.6,2.4C90.4,164.7,90.6,165.6,90.6,166.6z M83,171.4c1.3,0,2.4-0.5,3.2-1.4c0.8-0.9,1.3-2,1.3-3.4
		c0-1.4-0.4-2.5-1.3-3.4c-0.8-0.9-1.9-1.4-3.2-1.4c-1.3,0-2.4,0.5-3.2,1.4s-1.3,2.1-1.3,3.4c0,1.4,0.4,2.5,1.3,3.4
		C80.6,171,81.7,171.4,83,171.4z"/>
	<path class="st4" d="M100.2,173.8v-14.3h3.1v11.7h4.9v2.6L100.2,173.8L100.2,173.8z"/>
	<path class="st4" d="M117,173.8v-14.3h8.4v2.6h-5.3v2.9h5.3v2.6h-5.3v3.6h5.3v2.6L117,173.8L117,173.8z"/>
	<path class="st4" d="M147.7,159.5v8.9c0,1.9-0.5,3.4-1.5,4.4c-1,1-2.6,1.4-4.6,1.4c-2.1,0-3.6-0.5-4.7-1.4s-1.5-2.4-1.5-4.4v-8.9h3
		v8.4c0,1.2,0.3,2.1,0.8,2.7s1.3,0.9,2.3,0.9c1,0,1.8-0.3,2.4-0.9s0.8-1.5,0.8-2.7v-8.4H147.7z"/>
	<path class="st4" d="M156.7,173.8l2.2-14.3h3.2l2.8,8.4c0.1,0.2,0.1,0.4,0.2,0.8c0.1,0.3,0.1,0.7,0.2,1.2c0.1-0.4,0.1-0.8,0.2-1.2
		c0.1-0.3,0.1-0.6,0.2-0.8l2.8-8.4h3.2l2.2,14.3h-2.9l-1-8.6c-0.1-0.6-0.1-1.1-0.2-1.4s0-0.6,0-0.9c0-0.1,0-0.3,0-0.3
		c0-0.1,0-0.1,0-0.2c-0.1,0.6-0.2,1-0.3,1.5s-0.2,0.7-0.2,0.9l-3,9.1h-1.7l-3-9.1c0-0.1-0.1-0.3-0.2-0.7c-0.1-0.4-0.2-0.9-0.4-1.7
		v0.4c0,0.7-0.1,1.5-0.2,2.4l0,0l-1,8.6L156.7,173.8L156.7,173.8z"/>
	<path class="st4" d="M194.9,171.9l1.7-1.9c0.2,0.5,0.6,0.9,1,1.2s1,0.5,1.6,0.5c0.7,0,1.3-0.2,1.7-0.5c0.4-0.3,0.6-0.8,0.6-1.4
		c0-0.7-0.7-1.3-2.1-2c-0.5-0.2-0.8-0.4-1.1-0.5c-1.2-0.6-2.1-1.3-2.6-1.9c-0.5-0.6-0.7-1.4-0.7-2.2c0-1.2,0.5-2.1,1.4-2.9
		c0.9-0.8,2.2-1.1,3.6-1.1c0.9,0,1.6,0.2,2.2,0.5c0.6,0.3,1.2,0.8,1.7,1.4l-1.8,1.7c-0.2-0.4-0.5-0.7-0.9-0.9
		c-0.4-0.2-0.8-0.3-1.3-0.3c-0.6,0-1.1,0.1-1.5,0.5c-0.4,0.3-0.6,0.7-0.6,1.2c0,0.8,0.7,1.4,2.2,2.1c0.3,0.1,0.5,0.2,0.7,0.3
		c1.2,0.6,2.1,1.2,2.7,1.9c0.6,0.7,0.9,1.5,0.9,2.4c0,1.3-0.5,2.4-1.4,3.2c-0.9,0.8-2.1,1.2-3.7,1.2c-1.1,0-2-0.2-2.8-0.6
		C195.9,173.2,195.3,172.6,194.9,171.9z"/>
	<path class="st4" d="M212.3,173.8l5.4-14.3h3.5l5.5,14.3h-3.5l-1.2-3h-5.5l-1,3H212.3z M221.4,168.3l-1.6-4.6
		c0-0.1-0.1-0.4-0.2-0.7c-0.1-0.3-0.1-0.7-0.2-1.2c-0.1,0.5-0.2,0.9-0.2,1.2c-0.1,0.4-0.1,0.6-0.2,0.7l-1.5,4.6H221.4z"/>
	<path class="st4" d="M235.3,173.8v-14.3h8.4v2.6h-5.3v2.9h5.3v2.6h-5.3v6.2L235.3,173.8L235.3,173.8z"/>
	<path class="st4" d="M253.1,173.8v-14.3h8.4v2.6h-5.3v2.9h5.3v2.6h-5.3v3.6h5.3v2.6L253.1,173.8L253.1,173.8z"/>
	<path class="st4" d="M276.8,162v11.7h-3.1V162h-3.5v-2.6h10.1v2.6H276.8z"/>
	<path class="st4" d="M292.3,173.8v-6.5l-4.8-7.8h3.6l2.1,3.9c0.1,0.2,0.2,0.4,0.3,0.7s0.2,0.6,0.3,1c0.1-0.3,0.2-0.6,0.3-0.9
		c0.1-0.3,0.2-0.6,0.4-0.9l2.1-3.9h3.6l-4.8,7.8v6.5L292.3,173.8L292.3,173.8z"/>
	<path class="st4" d="M319.9,173.8l5.4-14.3h3.5l5.5,14.3h-3.5l-1.2-3h-5.5l-1,3H319.9z M329,168.3l-1.6-4.6c0-0.1-0.1-0.4-0.2-0.7
		c-0.1-0.3-0.1-0.7-0.2-1.2c-0.1,0.5-0.2,0.9-0.2,1.2s-0.1,0.6-0.2,0.7l-1.5,4.6H329z"/>
	<path class="st4" d="M354.8,159.5v8.9c0,1.9-0.5,3.4-1.5,4.4c-1,1-2.6,1.4-4.6,1.4c-2.1,0-3.6-0.5-4.7-1.4s-1.5-2.4-1.5-4.4v-8.9h3
		v8.4c0,1.2,0.3,2.1,0.8,2.7s1.3,0.9,2.3,0.9c1,0,1.8-0.3,2.4-0.9c0.5-0.6,0.8-1.5,0.8-2.7v-8.4H354.8z"/>
	<path class="st4" d="M370.3,162v11.7h-3.1V162h-3.5v-2.6h10.1v2.6H370.3z"/>
	<path class="st4" d="M382.8,173.8v-14.3h3.1v5.8h6.2v-5.8h3.1v14.3H392v-6h-6.2v6H382.8z"/>
	<path class="st4" d="M419.9,166.6c0,1-0.2,2-0.6,2.9c-0.4,0.9-0.9,1.7-1.6,2.4c-0.7,0.7-1.6,1.3-2.5,1.6c-0.9,0.4-1.9,0.6-2.9,0.6
		c-0.9,0-1.7-0.1-2.6-0.4s-1.6-0.7-2.3-1.3c-0.9-0.7-1.6-1.6-2.1-2.6c-0.5-1-0.7-2.1-0.7-3.2c0-1,0.2-2,0.6-2.9
		c0.4-0.9,0.9-1.7,1.7-2.4c0.7-0.7,1.5-1.2,2.5-1.6c0.9-0.4,1.9-0.6,2.9-0.6c1,0,2,0.2,2.9,0.6s1.8,0.9,2.5,1.6
		c0.7,0.7,1.3,1.5,1.6,2.4C419.7,164.7,419.9,165.6,419.9,166.6z M412.3,171.4c1.3,0,2.4-0.5,3.2-1.4s1.3-2,1.3-3.4
		c0-1.4-0.4-2.5-1.3-3.4c-0.9-0.9-1.9-1.4-3.2-1.4c-1.3,0-2.4,0.5-3.2,1.4s-1.3,2.1-1.3,3.4c0,1.4,0.4,2.5,1.3,3.4
		C409.9,171,411,171.4,412.3,171.4z"/>
	<path class="st4" d="M439.8,173.8h-3.5l-3.8-6.7v6.7h-3.1v-14.3h4.4c1.7,0,3,0.3,3.9,1s1.3,1.7,1.3,3c0,1-0.3,1.8-0.9,2.5
		c-0.6,0.7-1.4,1.1-2.3,1.2L439.8,173.8z M432.6,165.5h0.5c1.2,0,2-0.1,2.4-0.4c0.4-0.3,0.6-0.7,0.6-1.4c0-0.7-0.2-1.2-0.6-1.5
		s-1.2-0.4-2.4-0.4h-0.5V165.5z"/>
	<path class="st4" d="M448.7,173.8v-14.3h3.1v14.3H448.7z"/>
	<path class="st4" d="M467.3,162v11.7h-3.1V162h-3.5v-2.6h10.1v2.6H467.3z"/>
	<path class="st4" d="M482.8,173.8v-6.5l-4.8-7.8h3.6l2.1,3.9c0.1,0.2,0.2,0.4,0.3,0.7s0.2,0.6,0.3,1c0.1-0.3,0.2-0.6,0.3-0.9
		c0.1-0.3,0.2-0.6,0.4-0.9l2.1-3.9h3.6l-4.8,7.8v6.5L482.8,173.8L482.8,173.8z"/>
	<path class="st4" d="M184.2,207.8v-14.3h3.2l6.3,8.3c0.2,0.2,0.4,0.6,0.6,1c0.2,0.4,0.4,0.9,0.7,1.5c-0.1-0.4-0.1-0.8-0.2-1.3
		c0-0.4,0-0.9,0-1.6v-8h2.9v14.3h-3l-6.5-8.5c-0.2-0.2-0.4-0.6-0.6-1c-0.2-0.4-0.4-0.9-0.7-1.5c0.1,0.4,0.1,0.8,0.2,1.2s0,0.9,0,1.6
		v8.2L184.2,207.8L184.2,207.8z"/>
	<path class="st4" d="M222.5,200.6c0,1-0.2,2-0.6,2.9c-0.4,0.9-0.9,1.7-1.6,2.4c-0.7,0.7-1.6,1.3-2.5,1.6s-1.9,0.6-2.9,0.6
		c-0.9,0-1.7-0.1-2.6-0.4s-1.6-0.7-2.3-1.3c-0.9-0.7-1.6-1.6-2.1-2.6c-0.5-1-0.7-2.1-0.7-3.2c0-1,0.2-2,0.6-2.9
		c0.4-0.9,0.9-1.7,1.7-2.4c0.7-0.7,1.5-1.2,2.5-1.6c0.9-0.4,1.9-0.6,2.9-0.6c1,0,2,0.2,2.9,0.6c0.9,0.4,1.8,0.9,2.5,1.6
		c0.7,0.7,1.3,1.5,1.6,2.4C222.3,198.7,222.5,199.6,222.5,200.6z M214.9,205.4c1.3,0,2.4-0.5,3.2-1.4s1.3-2,1.3-3.4
		c0-1.4-0.4-2.5-1.3-3.4c-0.9-0.9-1.9-1.4-3.2-1.4c-1.3,0-2.4,0.5-3.2,1.4s-1.3,2.1-1.3,3.4c0,1.4,0.4,2.5,1.3,3.4
		C212.5,205,213.6,205.4,214.9,205.4z"/>
	<path class="st4" d="M242.4,207.8h-3.5l-3.8-6.7v6.7h-3.1v-14.3h4.4c1.7,0,3,0.3,3.9,1c0.9,0.7,1.3,1.7,1.3,3c0,1-0.3,1.8-0.9,2.5
		c-0.6,0.7-1.4,1.1-2.3,1.2L242.4,207.8z M235.1,199.5h0.5c1.2,0,2-0.1,2.4-0.4s0.6-0.7,0.6-1.4c0-0.7-0.2-1.2-0.6-1.5
		c-0.4-0.3-1.2-0.4-2.4-0.4h-0.5V199.5z"/>
	<path class="st4" d="M261.2,193.5l2.1,7.8c0.1,0.5,0.3,1,0.4,1.6c0.1,0.6,0.2,1.2,0.3,1.9c0-0.6,0.1-1.2,0.1-1.8
		c0.1-0.6,0.2-1.2,0.3-1.7l1.9-7.8h3l-3.8,14.3h-2.9l-2.5-9.1c-0.1-0.4-0.2-0.8-0.3-1.3c-0.1-0.4-0.1-0.9-0.1-1.3
		c0,0.5-0.1,0.9-0.2,1.4c-0.1,0.4-0.2,0.8-0.3,1.2l-2.6,9.1h-2.9l-3.8-14.3h3.1l1.9,7.9c0.1,0.5,0.2,0.9,0.3,1.5
		c0.1,0.5,0.1,1.1,0.1,1.7c0.1-0.8,0.4-1.9,0.7-3.1l0-0.2l2.1-7.8L261.2,193.5L261.2,193.5z"/>
	<path class="st4" d="M276.3,207.8l5.4-14.3h3.5l5.5,14.3h-3.5l-1.2-3h-5.5l-1,3H276.3z M285.4,202.3l-1.6-4.6
		c0-0.1-0.1-0.4-0.2-0.7c-0.1-0.3-0.1-0.7-0.2-1.2c-0.1,0.5-0.2,0.9-0.2,1.2s-0.1,0.6-0.2,0.7l-1.5,4.6H285.4z"/>
	<path class="st4" d="M301.1,207.8v-6.5l-4.8-7.8h3.6l2.1,3.9c0.1,0.2,0.2,0.4,0.3,0.7s0.2,0.6,0.3,1c0.1-0.3,0.2-0.6,0.3-0.9
		c0.1-0.3,0.2-0.6,0.4-0.9l2.1-3.9h3.6l-4.8,7.8v6.5L301.1,207.8L301.1,207.8z"/>
</g>
</svg>
