<?xml version="1.0" encoding="utf-8"?>
<!-- Generator: Adobe Illustrator 21.1.0, SVG Export Plug-In . SVG Version: 6.00 Build 0)  -->
<svg version="1.1" id="Lag_1" xmlns="http://www.w3.org/2000/svg" xmlns:xlink="http://www.w3.org/1999/xlink" x="0px" y="0px"
	 viewBox="0 0 147.4 147.4" style="enable-background:new 0 0 147.4 147.4;" xml:space="preserve">
<style type="text/css">
	.st0{fill:#FFFFFF;stroke:#FFFFFF;stroke-width:3.6857;}
	.st1{fill:none;stroke:#FFFFFF;stroke-width:4.536;}
	.st2{fill:#FFFFFF;}
</style>
<g>
	<path class="st0" d="M4.3,74.8c-0.2,0-1.5-0.8-1.5-1.8l0,0c0-1,1.3-1.8,1.5-1.8h19.6c0.2,0,0.4,0.8,0.4,1.8l0,0
		c0,1-0.2,1.8-0.4,1.8H4.3z"/>
	<path class="st0" d="M72,4.8c0-0.5,0.8-1.9,1.8-1.9l0,0c1,0,1.8,1.4,1.8,1.9v40.4c0,0.5-0.8,0.8-1.8,0.8l0,0c-1,0-1.8-0.4-1.8-0.8
		V4.8z"/>
	<path class="st1" d="M25.5,73.4c0,26.6,21.5,48.1,48.1,48.1s48.1-21.5,48.1-48.1"/>
	<g>
		<path class="st2" d="M73,60c7.6,0,13.8,6.2,13.8,13.8c0,0.4,0,0.8-0.1,1.2h37.5c0-27.9-22.6-50.5-50.5-50.5S23.2,47.1,23.2,75
			h36.1c0-0.4-0.1-0.8-0.1-1.2C59.2,66.1,65.4,60,73,60z"/>
	</g>
	<path class="st0" d="M71.3,122c0-0.2,0.8-0.4,1.8-0.4l0,0c1,0,1.8,0.2,1.8,0.4v21c0,0.2-0.8,1.5-1.8,1.5l0,0c-1,0-1.8-1.3-1.8-1.5
		V122z"/>
	<path class="st0" d="M122.2,74.9c-0.2,0-0.4-0.8-0.4-1.8l0,0c0-1,0.2-1.8,0.4-1.8h20.9c0.2,0,1.5,0.8,1.5,1.8l0,0
		c0,1-1.3,1.8-1.5,1.8H122.2z"/>
	<circle class="st2" cx="73" cy="73.7" r="10.6"/>
</g>
</svg>
